<?xml version="1.0" encoding="UTF-8"?> <svg xmlns="http://www.w3.org/2000/svg" width="3168" height="1772" viewBox="0 0 3168 1772" fill="none"> <rect width="3168" height="1772" fill="white"></rect> <path fill-rule="evenodd" clip-rule="evenodd" d="M1675.99 484.87V623.74L1771.74 678.656L1867.49 733.573L1867.99 867.066L1868.49 1000.56L1902.24 1000.82L1935.99 1001.09V1011.57V1022.06H1584.49H1232.99V1011.57V1001.09L1267.74 1000.82L1302.49 1000.56L1302.82 894.56L1303.14 788.56L1349.67 749.31L1396.21 710.06H1422.1H1447.99V722.06V734.06L1424.24 734.094L1400.49 734.127L1362.3 766.344L1324.11 798.56L1324.05 899.816L1323.99 1001.07L1397.74 1000.82L1471.49 1000.56L1471.99 733.126L1472.49 465.692L1482.99 459.549C1488.77 456.17 1533.32 430.114 1581.99 401.647C1630.67 373.18 1671.73 349.014 1673.24 347.944L1675.99 346V484.87ZM1572.98 431.382L1493.49 477.944L1493.24 739.502L1492.99 1001.06H1520.99H1548.99L1548.97 875.81L1548.94 750.56L1534.47 742.736L1519.99 734.912V722.379C1519.99 712.736 1520.28 709.968 1521.24 710.377C1521.93 710.669 1533.07 716.686 1545.99 723.749L1569.49 736.59L1569.99 868.575L1570.49 1000.56H1612.49H1654.49L1654.75 692.202C1654.95 443.285 1654.75 383.939 1653.73 384.332C1653.03 384.6 1616.69 405.772 1572.98 431.382ZM1675.99 824.56V1001.06H1761.49H1846.99V873.655V746.25L1761.74 697.241C1714.86 670.286 1676.38 648.193 1676.24 648.146C1676.11 648.099 1675.99 727.485 1675.99 824.56ZM909.245 1139.13C874.018 1143.71 844.294 1167.43 834.057 1199.15C831.314 1207.64 828.997 1221.12 829 1228.56C829.004 1236.49 831.41 1250.98 834.062 1259.04C843.684 1288.29 869.44 1310.67 901.495 1317.62C912.345 1319.97 935.481 1319.96 946.495 1317.6C963.144 1314.03 976.182 1307.34 988.233 1296.18L994.284 1290.58L983.44 1280.4L972.596 1270.21L966.8 1275.58C943.578 1297.08 902.757 1295.95 880.07 1273.18C866.666 1259.73 860.451 1240.63 862.982 1220.67C866.124 1195.88 880.959 1177.74 904.495 1169.89C913.938 1166.75 935.422 1166.5 943.995 1169.45C952.859 1172.49 960.392 1176.64 966.934 1182.09L973.048 1187.18L983.63 1177.37L994.211 1167.56L987.236 1161.06C979.563 1153.91 972.136 1149.1 963.212 1145.49C947.321 1139.07 927.572 1136.74 909.245 1139.13ZM1867.49 1139.2C1845.23 1142.03 1825.87 1151.84 1810.9 1167.87C1799.61 1179.96 1792.98 1192.85 1789.57 1209.33C1787.52 1219.29 1787.51 1238.78 1789.57 1248.85C1796.54 1283.07 1823.81 1309.88 1859.49 1317.62C1870.44 1319.99 1893.55 1319.99 1904.49 1317.62C1921.55 1313.92 1936.92 1305.9 1947.31 1295.28L1952.12 1290.36L1941.56 1280.35L1930.99 1270.34L1926.45 1274.45C1915.02 1284.8 1902.47 1289.92 1886.49 1290.74C1855.44 1292.34 1829.79 1274.24 1822.51 1245.6C1820.72 1238.57 1820.51 1221.48 1822.11 1213.86C1822.72 1210.95 1824.67 1205.41 1826.45 1201.56C1837.12 1178.43 1859.52 1165.86 1887.45 1167.32C1902.89 1168.12 1914.79 1172.96 1926.33 1183.12L1931.04 1187.27L1941.57 1177.51L1952.11 1167.75L1947.8 1163.32C1929.18 1144.13 1899.32 1135.16 1867.49 1139.2ZM1024 1154.54V1168.03L1052.75 1168.29L1081.5 1168.56L1081.75 1242.81L1082.01 1317.06H1097.99H1113.98L1114.24 1242.81L1114.49 1168.56L1143.74 1168.29L1172.99 1168.03V1154.54V1141.06H1098.49H1024V1154.54ZM1247.65 1144.31C1246.89 1146.1 1229.95 1183.78 1210.01 1228.06C1190.06 1272.33 1172.91 1310.47 1171.9 1312.81L1170.07 1317.06H1186.86H1203.66L1212.44 1296.55L1221.22 1276.04L1265.33 1276.3L1309.43 1276.56L1318.09 1296.56L1326.76 1316.56L1343.95 1316.83C1353.4 1316.98 1360.96 1316.76 1360.74 1316.33C1360.52 1315.91 1342.64 1276.3 1321.01 1228.31L1281.68 1141.06H1265.35H1249.02L1247.65 1144.31ZM1424.59 1163.31C1422.55 1229.39 1421.03 1248.89 1416.65 1265.31C1411.9 1283.09 1402.86 1291.36 1390.04 1289.66L1385.31 1289.03L1384.32 1302.8C1383.64 1312.12 1383.65 1316.78 1384.34 1317.23C1384.9 1317.6 1388.99 1318.42 1393.43 1319.05C1413.18 1321.84 1429.51 1313.66 1437.79 1296.82C1447 1278.07 1450.2 1254.67 1452.79 1187.06L1453.49 1168.56L1488.24 1168.3L1522.99 1168.03V1242.55V1317.06H1538.99H1554.99V1229.06V1141.06H1490.14H1425.28L1424.59 1163.31ZM1604.99 1229.06V1317.06L1648.24 1317.06C1693.07 1317.05 1702.07 1316.43 1713.49 1312.55C1731.76 1306.35 1743.51 1294.81 1749.61 1277.06C1752.49 1268.67 1752.23 1243.92 1749.17 1235.64C1745.92 1226.84 1742.7 1221.9 1736.48 1216.22C1722.4 1203.35 1707.09 1200.11 1660.24 1200.08L1636.99 1200.06V1170.56V1141.06H1620.99H1604.99V1229.06ZM1982.99 1229.06V1317.06L1998.24 1317.06L2013.49 1317.06L2060.49 1255.06L2107.49 1193.07L2107.75 1255.06L2108.01 1317.06H2124.25H2140.49V1229.06V1141.06L2124.99 1141.11L2109.49 1141.16L2062.49 1203.36L2015.49 1265.56L2015.24 1203.31L2014.98 1141.06H1998.99H1982.99V1229.06ZM2189.99 1229.13V1317.19L2239.74 1316.82C2287.16 1316.47 2289.86 1316.35 2297.34 1314.27C2308.6 1311.15 2317.56 1306.4 2324.55 1299.86C2332.58 1292.34 2336.65 1284.32 2338.78 1271.81C2340.26 1263.1 2340.27 1261.55 2338.81 1253.36C2335.07 1232.25 2323.19 1220.02 2300.49 1213.91C2293.28 1211.97 2289.04 1211.7 2257.49 1211.16L2222.49 1210.56L2222.22 1189.32L2221.95 1168.08L2274.72 1167.82L2327.49 1167.56L2327.77 1154.31L2328.05 1141.06H2259.02H2189.99V1229.13ZM1281.48 1211.06C1290.15 1231.13 1297.46 1248.35 1297.73 1249.31C1298.2 1250.95 1296.2 1251.06 1265.61 1251.06C1239.9 1251.06 1232.99 1250.79 1232.99 1249.79C1232.99 1249.09 1239.56 1233.23 1247.58 1214.54C1255.6 1195.85 1262.81 1179.03 1263.59 1177.16C1264.38 1175.29 1265.18 1173.94 1265.38 1174.16C1265.57 1174.38 1272.82 1190.98 1281.48 1211.06ZM1689.67 1226.13C1698.24 1227.29 1705.75 1230.26 1710.67 1234.42C1722.26 1244.23 1722.07 1271.18 1710.34 1282.24C1706.53 1285.83 1698.68 1289.6 1692.2 1290.95C1689.14 1291.59 1676.34 1292.06 1661.95 1292.06H1636.99V1259.23C1636.99 1241.17 1637.29 1226.09 1637.66 1225.73C1638.75 1224.64 1681.17 1224.97 1689.67 1226.13ZM2286.9 1238.49C2298.35 1242.17 2304.16 1248.15 2306 1258.15C2307.97 1268.78 2303.83 1280.25 2296.22 1285.29C2287.46 1291.09 2285.05 1291.45 2252.24 1291.85L2221.99 1292.21V1264.8C2221.99 1249.73 2222.33 1237.05 2222.74 1236.63C2223.16 1236.22 2236.54 1236.07 2252.49 1236.31C2276.43 1236.68 2282.44 1237.06 2286.9 1238.49ZM2306.51 1350.31C2308.12 1355.89 2315.66 1359.03 2322.82 1357.11C2326.98 1355.99 2329.36 1353.87 2330.44 1350.31C2331.04 1348.37 2330.77 1348.06 2328.46 1348.06C2326.8 1348.06 2325.04 1349.01 2323.82 1350.56C2322.41 1352.35 2320.89 1353.06 2318.44 1353.06C2315.92 1353.06 2314.62 1352.42 2313.4 1350.56C2312.27 1348.83 2310.86 1348.06 2308.81 1348.06C2306.22 1348.06 2305.94 1348.34 2306.51 1350.31ZM840.995 1368.09C836.484 1368.87 830.995 1370.68 830.995 1371.39C830.995 1372.13 833.196 1378.06 833.471 1378.06C833.625 1378.06 835.479 1377.34 837.591 1376.46C842.611 1374.36 852.103 1374.94 854.958 1377.53C857.577 1379.9 857.556 1383.24 854.907 1385.64C853.36 1387.04 850.894 1387.63 845.407 1387.9L837.995 1388.28V1391.17C837.995 1394.04 838.033 1394.06 844.245 1394.12C852.61 1394.19 857.204 1395.85 858.389 1399.23C860.731 1405.91 850.756 1410.66 840.495 1407.76C837.745 1406.98 834.738 1406.02 833.813 1405.62C832.574 1405.09 831.725 1405.68 830.594 1407.87L829.057 1410.84L834.276 1413.18C841.91 1416.59 853.737 1416.54 859.995 1413.06C868.914 1408.11 870.247 1397.87 862.623 1392.87L859.345 1390.72L862.42 1387.97C866.485 1384.34 866.802 1377.61 863.094 1373.67C858.837 1369.13 849.096 1366.67 840.995 1368.09ZM905.64 1371.25C904.854 1373.07 900.967 1381.76 897.002 1390.56C893.037 1399.36 888.954 1408.47 887.929 1410.81L886.066 1415.06H890.358C894.561 1415.06 894.7 1414.95 897.072 1409.81L899.495 1404.56L911.137 1404.28L922.778 1404L925.071 1409.53C927.35 1415.03 927.388 1415.06 931.679 1415.06C934.053 1415.06 935.989 1414.72 935.982 1414.31C935.974 1413.9 931.362 1403.44 925.732 1391.06L915.495 1368.56L911.282 1368.25C907.354 1367.97 906.972 1368.17 905.64 1371.25ZM957.995 1391.56V1415.06L971.745 1415.05C979.308 1415.05 987.154 1414.59 989.181 1414.03C994.58 1412.53 997.995 1407.99 997.995 1402.33C997.995 1398.28 997.528 1397.31 993.941 1393.89C990.712 1390.82 990.211 1389.91 991.478 1389.43C993.611 1388.61 995.996 1383.82 995.991 1380.36C995.989 1378.82 995.11 1376.12 994.038 1374.36C991.234 1369.76 984.686 1368.06 969.813 1368.06H957.995V1391.56ZM1032.42 1370.44C1023.64 1374.53 1018.97 1382.27 1019.02 1392.68C1019.11 1413.5 1046.75 1423.83 1062.18 1408.81C1067.12 1403.99 1069.01 1399.04 1068.97 1390.94C1068.95 1384.01 1066.35 1378.38 1061.14 1373.92C1053.68 1367.53 1041.77 1366.09 1032.42 1370.44ZM1097.68 1368.7C1097.3 1369.08 1096.99 1372.82 1096.99 1377C1096.99 1387.3 1095.23 1400.71 1093.4 1404.24C1092.44 1406.1 1090.85 1407.34 1088.95 1407.72L1085.99 1408.31V1416.69V1425.06H1089.94H1093.89L1094.19 1420.31L1094.49 1415.56L1112.24 1415.29L1129.99 1415.01V1420.04V1425.06H1133.99H1137.99V1416.56V1408.06H1135.02H1132.04L1131.77 1388.31L1131.49 1368.56L1114.93 1368.29C1105.83 1368.14 1098.06 1368.32 1097.68 1368.7ZM1193.99 1391.56V1415.06H1197.97H1201.94L1202.22 1400.32L1202.49 1385.57L1209.92 1397.86C1215.89 1407.75 1217.74 1410.1 1219.36 1409.86C1220.74 1409.65 1223.76 1405.61 1228.94 1397.06L1236.49 1384.56L1236.77 1399.81L1237.05 1415.06H1241.02H1244.99V1391.5V1367.94L1241.29 1368.25C1237.67 1368.55 1237.39 1368.88 1229.26 1382.56C1224.69 1390.26 1220.56 1397.18 1220.1 1397.95C1219.51 1398.93 1216.53 1394.78 1209.88 1383.7C1200.85 1368.64 1200.38 1368.06 1197.25 1368.06H1193.99V1391.56ZM1272.68 1368.7C1272.3 1369.08 1271.99 1379.67 1271.99 1392.23V1415.06H1289.79H1307.59L1307.18 1411.56L1306.78 1408.06H1293.89H1280.99V1401.56V1395.06H1292.49H1303.99V1391.56V1388.06H1292.49H1280.99V1382.09V1376.12L1293.74 1375.84L1306.49 1375.56V1372.06V1368.56L1289.93 1368.29C1280.83 1368.14 1273.06 1368.32 1272.68 1368.7ZM1325.99 1372.04V1376.06H1333.49H1340.99V1395.56V1415.06H1345.49H1349.99V1395.6V1376.14L1357.68 1375.85L1365.36 1375.56L1365.36 1372.06L1365.36 1368.56L1345.68 1368.29L1325.99 1368.02V1372.04ZM1394.46 1380.81C1391.3 1387.82 1386.54 1398.4 1383.9 1404.31L1379.09 1415.06H1383.47C1387.81 1415.06 1387.87 1415.01 1390.38 1409.53L1392.91 1404L1404.57 1404.28L1416.23 1404.56L1418.36 1409.81L1420.49 1415.06L1425.13 1415.06L1429.76 1415.06L1419.62 1392.81C1414.04 1380.57 1409.12 1370 1408.68 1369.31C1408.24 1368.62 1406.16 1368.06 1404.05 1368.06H1400.22L1394.46 1380.81ZM1456.99 1376.29C1456.97 1389.17 1455.23 1402.19 1453.13 1405.06C1452.12 1406.44 1450.08 1407.71 1448.59 1407.88C1446.13 1408.17 1445.91 1408.54 1446.19 1411.88C1446.46 1415.1 1446.85 1415.6 1449.35 1415.89C1453.19 1416.33 1457.54 1414.4 1459.51 1411.39C1462.03 1407.55 1463.96 1396.5 1463.98 1385.81L1463.99 1376.06H1473.49H1482.99V1395.56V1415.06H1487.51H1492.03L1491.76 1391.81L1491.49 1368.56L1474.24 1368.29L1456.99 1368.01L1456.99 1376.29ZM1523.98 1376.29C1523.97 1380.84 1523.53 1388.59 1523.02 1393.52C1521.99 1403.24 1520.11 1407.09 1515.9 1408.08C1514.08 1408.5 1513.42 1409.41 1513.18 1411.82C1512.92 1414.51 1513.26 1415.09 1515.43 1415.63C1521.41 1417.14 1526.7 1413.3 1528.94 1405.85C1529.65 1403.49 1530.43 1396.84 1530.67 1391.06C1531.35 1374.82 1530.5 1376.06 1541.01 1376.06H1549.99V1395.56V1415.06H1554.51H1559.03L1558.76 1391.81L1558.49 1368.56L1541.24 1368.29L1523.99 1368.01L1523.98 1376.29ZM1598.13 1369.43C1593.15 1371.23 1587.01 1376.82 1584.9 1381.47C1582.28 1387.23 1582.37 1397.13 1585.09 1402.75C1593.92 1420.99 1623.55 1419.78 1631.44 1400.84C1634.79 1392.81 1632.12 1380.11 1625.88 1374.37C1619.63 1368.64 1606.69 1366.33 1598.13 1369.43ZM1656.99 1391.5V1415.06H1661.49H1665.99V1405V1394.95L1670.15 1395.25C1674.17 1395.55 1674.53 1395.88 1680.94 1405.06L1687.58 1414.56L1692.29 1414.87C1694.88 1415.03 1696.99 1414.9 1696.99 1414.57C1696.99 1414.24 1693.62 1409.09 1689.49 1403.12C1685.37 1397.16 1681.99 1391.74 1681.99 1391.07C1681.99 1390.41 1684.63 1386.2 1687.84 1381.72C1691.06 1377.23 1694.49 1372.32 1695.46 1370.81L1697.22 1368.06H1692.75H1688.28L1681.45 1378.06L1674.62 1388.06H1670.34H1666.07L1665.78 1378.31L1665.49 1368.56L1661.24 1368.25L1656.99 1367.95V1391.5ZM1730.46 1369.08C1726.12 1370.41 1719.28 1376.58 1716.83 1381.38C1712.21 1390.44 1714.95 1403.56 1722.84 1410.1C1730.04 1416.06 1742.99 1417.64 1751.13 1413.53C1768.28 1404.9 1769.62 1381.53 1753.55 1371.59C1749.36 1369 1747.56 1368.53 1741.07 1368.35C1736.9 1368.24 1732.13 1368.56 1730.46 1369.08ZM1788.99 1391.5V1415.06H1793.3H1797.6L1797.36 1406.81C1796.99 1394.3 1796.17 1395.06 1810.06 1395.06H1821.99V1405.06V1415.06H1826.51H1831.03L1830.76 1391.81L1830.49 1368.56L1826.24 1368.25L1821.99 1367.95V1378.03V1388.12L1809.74 1387.84L1797.49 1387.56L1797.39 1378.06L1797.28 1368.56L1793.14 1368.25L1788.99 1367.95V1391.5ZM1869.62 1369.53C1857.19 1373.96 1850.98 1390.13 1856.96 1402.49C1862.93 1414.83 1880.36 1419.72 1892.67 1412.51C1898.31 1409.21 1898.59 1408.48 1895.32 1405.66L1892.53 1403.26L1889.55 1405.38C1887.54 1406.81 1884.63 1407.61 1880.54 1407.86C1875.47 1408.18 1873.95 1407.86 1871.09 1405.9C1866.04 1402.44 1863.77 1398.79 1863.29 1393.38C1862.74 1387.17 1866.01 1380.46 1870.99 1377.6C1875.99 1374.73 1884.85 1374.84 1888.89 1377.83C1892.66 1380.61 1893.14 1380.6 1895.83 1377.74L1898.01 1375.42L1895.74 1373.29C1890.36 1368.24 1878.17 1366.48 1869.62 1369.53ZM1914.39 1369.49C1914.08 1370.27 1913.99 1371.96 1914.17 1373.24C1914.47 1375.41 1915 1375.58 1922.24 1375.85L1929.99 1376.14V1395.6V1415.06H1933.99H1937.99V1395.56V1376.06H1945.99H1953.99V1372.06V1368.06H1934.46C1918.47 1368.06 1914.83 1368.32 1914.39 1369.49ZM1975.99 1391.56V1415.06H1979.99H1983.99V1408.56V1402.06H1989.95C1999.92 1402.06 2006.01 1400.27 2010.16 1396.13C2019.45 1386.84 2014.53 1372.05 2001.2 1369.2C1998.28 1368.57 1991.42 1368.06 1985.95 1368.06H1975.99V1391.56ZM2030.99 1368.43C2030.99 1368.63 2035.04 1376.39 2039.98 1385.68C2044.93 1394.96 2048.98 1403.09 2048.98 1403.74C2049.01 1406.17 2043.64 1409.26 2040.32 1408.73C2037.47 1408.26 2037.03 1408.53 2036.06 1411.32C2034.74 1415.1 2035.77 1416.02 2041.34 1416.05C2046.66 1416.07 2051.37 1413.59 2054.3 1409.24C2057.36 1404.7 2075.99 1370.04 2075.99 1368.89C2075.99 1368.44 2074.29 1368.06 2072.21 1368.06H2068.42L2061.46 1381.54C2057.63 1388.96 2054.26 1395.03 2053.98 1395.04C2053.69 1395.05 2050.43 1388.99 2046.73 1381.56L2040 1368.06H2035.5C2033.02 1368.06 2030.99 1368.23 2030.99 1368.43ZM2096.99 1391.5V1415.06H2101.49H2105.99V1405V1394.95L2110.15 1395.25C2114.17 1395.55 2114.53 1395.88 2120.94 1405.06L2127.58 1414.56L2132.29 1414.87C2134.88 1415.03 2136.99 1414.9 2136.99 1414.57C2136.99 1414.24 2133.62 1409.09 2129.49 1403.12C2125.37 1397.16 2121.99 1391.75 2121.99 1391.11C2121.99 1390.46 2125.07 1385.57 2128.82 1380.25C2132.57 1374.92 2135.98 1370 2136.38 1369.31C2136.92 1368.39 2135.95 1368.06 2132.69 1368.06H2128.28L2121.45 1378.06L2114.62 1388.06H2110.34H2106.07L2105.78 1378.31L2105.49 1368.56L2101.24 1368.25L2096.99 1367.95V1391.5ZM2157.99 1391.5V1415.06H2177.99H2197.99V1420.56V1426.06H2201.99H2205.99V1417.06V1408.06H2202.49H2198.99V1388V1367.95L2194.74 1368.25L2190.49 1368.56L2190.35 1388.06L2190.2 1407.56L2178.62 1407.84L2167.04 1408.12L2166.77 1388.34L2166.49 1368.56L2162.24 1368.25L2157.99 1367.95V1391.5ZM2228.66 1368.73C2228.29 1369.09 2227.99 1379.67 2227.99 1392.23V1415.06H2232.29H2236.58L2248.54 1399.11C2255.11 1390.34 2260.83 1383.14 2261.24 1383.11C2261.66 1383.08 2261.99 1390.26 2261.99 1399.06V1415.06H2265.99H2269.99V1391.56V1368.06H2266.1C2262.23 1368.06 2262.13 1368.16 2249.85 1384.59L2237.49 1401.13L2237.22 1384.59L2236.95 1368.06H2233.14C2231.04 1368.06 2229.03 1368.36 2228.66 1368.73ZM2297.99 1391.56V1415.06H2301.97C2305.94 1415.06 2305.97 1415.03 2318.22 1398.81L2330.49 1382.56L2330.77 1398.81L2331.05 1415.06H2335.52H2339.99V1391.56V1368.06L2335.74 1368.11L2331.49 1368.17L2318.99 1384.78L2306.49 1401.39L2306.22 1384.72L2305.95 1368.06H2301.97H2297.99V1391.56ZM984.995 1377.06C987.425 1379.49 987.585 1383.75 985.34 1386.23C983.989 1387.73 982.155 1388.06 975.34 1388.06H966.995V1381.56V1375.06H974.995C981.662 1375.06 983.328 1375.39 984.995 1377.06ZM1049.15 1376.09C1053.8 1377.38 1059.5 1383.62 1060.4 1388.39C1061.71 1395.37 1057.94 1403.48 1051.96 1406.58C1048.09 1408.58 1040.27 1408.45 1036.02 1406.31C1030.77 1403.68 1028 1398.84 1028 1392.36C1028 1380.01 1037.35 1372.81 1049.15 1376.09ZM1616.99 1377.91C1621.79 1381.43 1623.99 1385.89 1623.99 1392.06C1623.99 1401.9 1617.64 1408.06 1607.51 1408.06C1599.35 1408.05 1592.97 1402.66 1591.42 1394.47C1590.05 1387.22 1595.38 1378.23 1602.31 1376.11C1606.65 1374.79 1613.96 1375.68 1616.99 1377.91ZM1747.03 1377.31C1753.71 1380.69 1756.26 1385.13 1755.8 1392.6C1755.17 1402.73 1749.46 1408.06 1739.24 1408.06C1726.88 1408.06 1719.4 1395.29 1725.18 1384.06C1727.76 1379.04 1734.1 1375.06 1739.49 1375.06C1741.19 1375.06 1744.58 1376.07 1747.03 1377.31ZM1122.99 1392.06V1408.06H1111.39C1100.71 1408.06 1099.84 1407.92 1100.54 1406.31C1102.16 1402.54 1103.96 1392.26 1103.99 1386.56C1104.05 1375.89 1103.89 1376.06 1114.11 1376.06H1122.99V1392.06ZM2004.08 1378.92C2005.21 1380.31 2005.99 1382.83 2005.99 1385.06C2005.99 1387.29 2005.21 1389.81 2004.08 1391.2C2002.38 1393.31 2001.21 1393.6 1993.08 1393.91L1983.99 1394.26V1385.06V1375.86L1993.08 1376.21C2001.21 1376.52 2002.38 1376.81 2004.08 1378.92ZM915.438 1386.81C917.495 1391.62 919.41 1396.12 919.694 1396.81C920.082 1397.75 918.096 1398.06 911.602 1398.06C906.41 1398.06 902.995 1397.66 902.995 1397.04C902.995 1395.46 910.417 1378.08 911.096 1378.07C911.427 1378.07 913.381 1382 915.438 1386.81ZM1409 1387.95C1411.2 1393.01 1412.99 1397.36 1412.99 1397.61C1412.99 1397.86 1409.17 1398.06 1404.49 1398.06C1399.82 1398.06 1395.99 1397.65 1395.99 1397.15C1395.99 1396.25 1402.46 1380.74 1403.6 1378.88C1404.44 1377.52 1404.57 1377.74 1409 1387.95ZM987.166 1396.72C989.048 1398.42 989.607 1403.55 988.159 1405.83C986.922 1407.78 981.207 1409.06 973.752 1409.06H966.995V1402.06V1395.06H976.166C983.297 1395.06 985.744 1395.43 987.166 1396.72Z" fill="#4490ED"></path> </svg> 